<svg xmlns="http://www.w3.org/2000/svg" viewBox="0 0 1024 1024">
  <defs>
    <linearGradient id="bg" x1="96" y1="96" x2="928" y2="928" gradientUnits="userSpaceOnUse">
      <stop offset="0" stop-color="#12304f"/>
      <stop offset="1" stop-color="#1f7a8c"/>
    </linearGradient>
    <linearGradient id="bus" x1="214" y1="308" x2="812" y2="686" gradientUnits="userSpaceOnUse">
      <stop offset="0" stop-color="#ffc46b"/>
      <stop offset="1" stop-color="#f28b35"/>
    </linearGradient>
  </defs>
  <rect width="1024" height="1024" fill="url(#bg)"/>
  <circle cx="820" cy="190" r="78" fill="#e0fbfc" opacity=".18"/>
  <circle cx="190" cy="820" r="132" fill="#e0fbfc" opacity=".12"/>
  <path d="M274 302h476c58 0 106 47 106 106v222c0 31-25 56-56 56H224c-31 0-56-25-56-56V408c0-58 48-106 106-106Z" fill="url(#bus)"/>
  <path d="M220 402c0-25 20-45 45-45h484c25 0 45 20 45 45v104H220V402Z" fill="#ffd995" opacity=".38"/>
  <rect x="263" y="388" width="126" height="96" rx="28" fill="#e0fbfc"/>
  <rect x="431" y="388" width="126" height="96" rx="28" fill="#e0fbfc"/>
  <rect x="599" y="388" width="126" height="96" rx="28" fill="#e0fbfc"/>
  <path d="M168 570h688v60c0 31-25 56-56 56H224c-31 0-56-25-56-56v-60Z" fill="#f5a34f"/>
  <path d="M222 548h156c24 0 44 20 44 44v18H222v-62Z" fill="#ffd866"/>
  <path d="M602 548h156c24 0 44 20 44 44v18H602v-62Z" fill="#ffd866"/>
  <circle cx="314" cy="686" r="82" fill="#14314f"/>
  <circle cx="314" cy="686" r="38" fill="#eaf4f8"/>
  <circle cx="710" cy="686" r="82" fill="#14314f"/>
  <circle cx="710" cy="686" r="38" fill="#eaf4f8"/>
  <path d="M248 774h528" stroke="#e0fbfc" stroke-width="30" stroke-linecap="round" opacity=".65"/>
  <text x="512" y="250" text-anchor="middle" font-family="Arial, Helvetica, sans-serif" font-size="118" font-weight="900" fill="#ffffff">LuGo</text>
</svg>
